<?xml version="1.0" encoding="UTF-8" standalone="no"?><!-- Generator: Gravit.io -->
<svg xmlns="http://www.w3.org/2000/svg"
     xmlns:xlink="http://www.w3.org/1999/xlink" style="isolation:isolate"
     viewBox="0 0 450 450" width="450pt" height="450pt">
    <defs>
        <clipPath id="_clipPath_nZ9NsQcw53dGb1djdwLdDKVpJdcxBU7O">
            <rect width="450" height="450"/>
        </clipPath>
    </defs>
    <g clip-path="url(#_clipPath_nZ9NsQcw53dGb1djdwLdDKVpJdcxBU7O)">
        <mask id="_mask_Oa71rqr4bKABdhc4mhnnwv03iBq6HDOh" x="-200%" y="-200%"
              width="400%" height="400%">
            <rect x="-200%" y="-200%" width="400%" height="400%"
                  style="fill:white;"/>
            <path d=" M 176.144 133.364 L 196.379 195.548 C 196.457 195.787 196.622 195.988 196.841 196.111 L 291.662 249.231 C 291.88 249.353 292.134 249.389 292.377 249.332 L 319.838 242.958 C 319.945 242.933 320.048 242.89 320.141 242.832 L 341.043 229.768 C 341.895 229.236 341.5 227.92 340.496 227.92 C 339.537 227.92 339.113 226.701 339.878 226.122 L 356.61 213.471 C 357.226 213.005 357.105 212.047 356.392 211.75 L 353.302 210.462 C 352.666 210.197 352.482 209.384 352.943 208.871 L 381.501 177.088 C 382.079 176.445 381.622 175.42 380.757 175.42 L 379.959 175.42 C 379.062 175.42 378.619 174.33 379.261 173.704 L 395.239 158.136 C 395.881 157.51 395.438 156.42 394.541 156.42 L 393.538 156.42 C 392.707 156.42 392.238 155.465 392.747 154.808 L 410.753 131.532 C 411.262 130.875 410.793 129.92 409.962 129.92 L 406.432 129.92 C 405.621 129.92 405.147 129.005 405.616 128.343 L 417.884 110.997 C 418.353 110.335 417.879 109.42 417.068 109.42 L 414.34 109.42 C 413.46 109.42 413.009 108.365 413.618 107.729 L 432.382 88.111 C 432.991 87.475 432.54 86.42 431.66 86.42 L 430.898 86.42 C 430.094 86.42 429.618 85.518 430.074 84.854 L 439.926 70.486 C 440.382 69.822 439.906 68.92 439.102 68.92 L 420 68.92 C 419.448 68.92 419 68.472 419 67.92 L 419 67.515 C 419 66.927 418.495 66.466 417.909 66.519 L 392.591 68.821 C 392.005 68.874 391.5 68.413 391.5 67.825 L 391.5 64.92 C 391.5 64.368 391.052 63.92 390.5 63.92 L 365 63.92 C 364.448 63.92 364 63.472 364 62.92 L 364 60.126 C 364 59.5 363.43 59.027 362.815 59.144 L 338.685 63.696 C 338.07 63.813 337.5 63.34 337.5 62.714 L 337.5 60.053 C 337.5 59.451 336.973 58.986 336.376 59.061 L 298.624 63.779 C 298.027 63.854 297.5 63.389 297.5 62.787 L 297.5 60.307 C 297.5 59.625 296.831 59.143 296.184 59.359 L 261.316 70.981 C 260.669 71.197 260 70.715 260 70.033 L 260 68.36 C 260 67.547 259.082 67.074 258.42 67.546 L 183.662 120.804 C 183.555 120.881 183.464 120.977 183.394 121.089 L 176.247 132.524 C 176.091 132.775 176.053 133.082 176.144 133.364 Z "
                  fill="black" stroke="none"/>
        </mask>
        <path d=" M 176.144 133.364 L 196.379 195.548 C 196.457 195.787 196.622 195.988 196.841 196.111 L 291.662 249.231 C 291.88 249.353 292.134 249.389 292.377 249.332 L 319.838 242.958 C 319.945 242.933 320.048 242.89 320.141 242.832 L 341.043 229.768 C 341.895 229.236 341.5 227.92 340.496 227.92 C 339.537 227.92 339.113 226.701 339.878 226.122 L 356.61 213.471 C 357.226 213.005 357.105 212.047 356.392 211.75 L 353.302 210.462 C 352.666 210.197 352.482 209.384 352.943 208.871 L 381.501 177.088 C 382.079 176.445 381.622 175.42 380.757 175.42 L 379.959 175.42 C 379.062 175.42 378.619 174.33 379.261 173.704 L 395.239 158.136 C 395.881 157.51 395.438 156.42 394.541 156.42 L 393.538 156.42 C 392.707 156.42 392.238 155.465 392.747 154.808 L 410.753 131.532 C 411.262 130.875 410.793 129.92 409.962 129.92 L 406.432 129.92 C 405.621 129.92 405.147 129.005 405.616 128.343 L 417.884 110.997 C 418.353 110.335 417.879 109.42 417.068 109.42 L 414.34 109.42 C 413.46 109.42 413.009 108.365 413.618 107.729 L 432.382 88.111 C 432.991 87.475 432.54 86.42 431.66 86.42 L 430.898 86.42 C 430.094 86.42 429.618 85.518 430.074 84.854 L 439.926 70.486 C 440.382 69.822 439.906 68.92 439.102 68.92 L 420 68.92 C 419.448 68.92 419 68.472 419 67.92 L 419 67.515 C 419 66.927 418.495 66.466 417.909 66.519 L 392.591 68.821 C 392.005 68.874 391.5 68.413 391.5 67.825 L 391.5 64.92 C 391.5 64.368 391.052 63.92 390.5 63.92 L 365 63.92 C 364.448 63.92 364 63.472 364 62.92 L 364 60.126 C 364 59.5 363.43 59.027 362.815 59.144 L 338.685 63.696 C 338.07 63.813 337.5 63.34 337.5 62.714 L 337.5 60.053 C 337.5 59.451 336.973 58.986 336.376 59.061 L 298.624 63.779 C 298.027 63.854 297.5 63.389 297.5 62.787 L 297.5 60.307 C 297.5 59.625 296.831 59.143 296.184 59.359 L 261.316 70.981 C 260.669 71.197 260 70.715 260 70.033 L 260 68.36 C 260 67.547 259.082 67.074 258.42 67.546 L 183.662 120.804 C 183.555 120.881 183.464 120.977 183.394 121.089 L 176.247 132.524 C 176.091 132.775 176.053 133.082 176.144 133.364 Z "
              fill="rgb(255,255,255)"
              mask="url(#_mask_Oa71rqr4bKABdhc4mhnnwv03iBq6HDOh)"
              stroke-width="8"
              stroke="rgb(255,0,0)" stroke-linejoin="miter"
              stroke-linecap="butt" stroke-miterlimit="4"/>
        <path d=" M 176.144 133.364 L 196.379 195.548 C 196.457 195.787 196.622 195.988 196.841 196.111 L 291.662 249.231 C 291.88 249.353 292.134 249.389 292.377 249.332 L 319.838 242.958 C 319.945 242.933 320.048 242.89 320.141 242.832 L 341.043 229.768 C 341.895 229.236 341.5 227.92 340.496 227.92 C 339.537 227.92 339.113 226.701 339.878 226.122 L 356.61 213.471 C 357.226 213.005 357.105 212.047 356.392 211.75 L 353.302 210.462 C 352.666 210.197 352.482 209.384 352.943 208.871 L 381.501 177.088 C 382.079 176.445 381.622 175.42 380.757 175.42 L 379.959 175.42 C 379.062 175.42 378.619 174.33 379.261 173.704 L 395.239 158.136 C 395.881 157.51 395.438 156.42 394.541 156.42 L 393.538 156.42 C 392.707 156.42 392.238 155.465 392.747 154.808 L 410.753 131.532 C 411.262 130.875 410.793 129.92 409.962 129.92 L 406.432 129.92 C 405.621 129.92 405.147 129.005 405.616 128.343 L 417.884 110.997 C 418.353 110.335 417.879 109.42 417.068 109.42 L 414.34 109.42 C 413.46 109.42 413.009 108.365 413.618 107.729 L 432.382 88.111 C 432.991 87.475 432.54 86.42 431.66 86.42 L 430.898 86.42 C 430.094 86.42 429.618 85.518 430.074 84.854 L 439.926 70.486 C 440.382 69.822 439.906 68.92 439.102 68.92 L 420 68.92 C 419.448 68.92 419 68.472 419 67.92 L 419 67.515 C 419 66.927 418.495 66.466 417.909 66.519 L 392.591 68.821 C 392.005 68.874 391.5 68.413 391.5 67.825 L 391.5 64.92 C 391.5 64.368 391.052 63.92 390.5 63.92 L 365 63.92 C 364.448 63.92 364 63.472 364 62.92 L 364 60.126 C 364 59.5 363.43 59.027 362.815 59.144 L 338.685 63.696 C 338.07 63.813 337.5 63.34 337.5 62.714 L 337.5 60.053 C 337.5 59.451 336.973 58.986 336.376 59.061 L 298.624 63.779 C 298.027 63.854 297.5 63.389 297.5 62.787 L 297.5 60.307 C 297.5 59.625 296.831 59.143 296.184 59.359 L 261.316 70.981 C 260.669 71.197 260 70.715 260 70.033 L 260 68.36 C 260 67.547 259.082 67.074 258.42 67.546 L 183.662 120.804 C 183.555 120.881 183.464 120.977 183.394 121.089 L 176.247 132.524 C 176.091 132.775 176.053 133.082 176.144 133.364 Z "
              fill="rgb(255,255,255)"/>
        <path d=" M 261 153.92 L 295 137.534 M 385.5 93.92 L 340.25 115.727 M 295 137.534 L 295 111.42 M 295 137.534 L 340.25 115.727 M 295 137.534 L 319 144.92 M 340.25 115.727 L 345 98.92 M 340.25 115.727 L 356 119.92"
              fill="none" stroke-width="4"
              stroke="rgb(255,0,0)" stroke-linejoin="miter"
              stroke-linecap="round" stroke-miterlimit="4"/>
        <mask id="_mask_LjPjIdTXsY8WAGHKE55fEeWwKFqImnAR" x="-200%" y="-200%"
              width="400%" height="400%">
            <rect x="-200%" y="-200%" width="400%" height="400%"
                  style="fill:white;"/>
            <path d=" M 109.107 227.562 L 167.674 208.503 C 167.907 208.428 168.104 208.269 168.228 208.057 L 216.028 126.316 C 216.167 126.078 216.202 125.792 216.123 125.528 L 209.341 102.636 C 209.307 102.522 209.253 102.415 209.181 102.319 L 196.141 84.995 C 195.591 84.266 194.429 84.675 194.459 85.588 C 194.488 86.458 193.418 86.891 192.833 86.247 L 180.284 72.427 C 179.794 71.888 178.911 72.036 178.624 72.705 L 177.528 75.262 C 177.273 75.856 176.529 76.056 176.01 75.669 L 145.034 52.53 C 144.362 52.029 143.408 52.526 143.436 53.364 L 143.446 53.672 C 143.474 54.54 142.457 55.029 141.797 54.465 L 126.639 41.511 C 125.978 40.946 124.961 41.435 124.99 42.304 L 125.006 42.788 C 125.032 43.593 124.145 44.098 123.467 43.663 L 100.907 29.205 C 100.228 28.77 99.341 29.274 99.368 30.079 L 99.454 32.712 C 99.48 33.498 98.629 34.005 97.95 33.608 L 81.185 23.811 C 80.505 23.414 79.655 23.921 79.681 24.707 L 79.745 26.655 C 79.773 27.507 78.79 28.001 78.122 27.47 L 59.032 12.276 C 58.365 11.745 57.382 12.239 57.41 13.092 L 57.419 13.377 C 57.445 14.157 56.606 14.665 55.927 14.28 L 42.057 6.432 C 41.378 6.048 40.54 6.555 40.565 7.335 L 41.085 23.162 C 41.103 23.714 40.67 24.176 40.118 24.195 L 39.848 24.203 C 39.256 24.223 38.81 24.75 38.89 25.337 L 41.733 46.324 C 41.813 46.911 41.367 47.438 40.775 47.457 L 38.128 47.544 C 37.576 47.562 37.143 48.025 37.161 48.577 L 37.859 69.837 C 37.877 70.389 37.444 70.851 36.892 70.869 L 34.372 70.952 C 33.737 70.973 33.282 71.574 33.434 72.191 L 38.332 92.051 C 38.484 92.669 38.03 93.269 37.394 93.29 L 35.024 93.368 C 34.417 93.388 33.967 93.941 34.072 94.539 L 39.541 125.948 C 39.646 126.547 39.196 127.099 38.589 127.119 L 36.427 127.19 C 35.729 127.213 35.269 127.926 35.535 128.571 L 47.36 157.231 C 47.626 157.876 47.166 158.589 46.469 158.612 L 45.238 158.652 C 44.399 158.68 43.965 159.665 44.511 160.302 L 96.967 221.573 C 97.051 221.672 97.154 221.753 97.269 221.812 L 108.341 227.501 C 108.578 227.623 108.854 227.645 109.107 227.562 Z "
                  fill="black" stroke="none"/>
        </mask>
        <path d=" M 109.107 227.562 L 167.674 208.503 C 167.907 208.428 168.104 208.269 168.228 208.057 L 216.028 126.316 C 216.167 126.078 216.202 125.792 216.123 125.528 L 209.341 102.636 C 209.307 102.522 209.253 102.415 209.181 102.319 L 196.141 84.995 C 195.591 84.266 194.429 84.675 194.459 85.588 C 194.488 86.458 193.418 86.891 192.833 86.247 L 180.284 72.427 C 179.794 71.888 178.911 72.036 178.624 72.705 L 177.528 75.262 C 177.273 75.856 176.529 76.056 176.01 75.669 L 145.034 52.53 C 144.362 52.029 143.408 52.526 143.436 53.364 L 143.446 53.672 C 143.474 54.54 142.457 55.029 141.797 54.465 L 126.639 41.511 C 125.978 40.946 124.961 41.435 124.99 42.304 L 125.006 42.788 C 125.032 43.593 124.145 44.098 123.467 43.663 L 100.907 29.205 C 100.228 28.77 99.341 29.274 99.368 30.079 L 99.454 32.712 C 99.48 33.498 98.629 34.005 97.95 33.608 L 81.185 23.811 C 80.505 23.414 79.655 23.921 79.681 24.707 L 79.745 26.655 C 79.773 27.507 78.79 28.001 78.122 27.47 L 59.032 12.276 C 58.365 11.745 57.382 12.239 57.41 13.092 L 57.419 13.377 C 57.445 14.157 56.606 14.665 55.927 14.28 L 42.057 6.432 C 41.378 6.048 40.54 6.555 40.565 7.335 L 41.085 23.162 C 41.103 23.714 40.67 24.176 40.118 24.195 L 39.848 24.203 C 39.256 24.223 38.81 24.75 38.89 25.337 L 41.733 46.324 C 41.813 46.911 41.367 47.438 40.775 47.457 L 38.128 47.544 C 37.576 47.562 37.143 48.025 37.161 48.577 L 37.859 69.837 C 37.877 70.389 37.444 70.851 36.892 70.869 L 34.372 70.952 C 33.737 70.973 33.282 71.574 33.434 72.191 L 38.332 92.051 C 38.484 92.669 38.03 93.269 37.394 93.29 L 35.024 93.368 C 34.417 93.388 33.967 93.941 34.072 94.539 L 39.541 125.948 C 39.646 126.547 39.196 127.099 38.589 127.119 L 36.427 127.19 C 35.729 127.213 35.269 127.926 35.535 128.571 L 47.36 157.231 C 47.626 157.876 47.166 158.589 46.469 158.612 L 45.238 158.652 C 44.399 158.68 43.965 159.665 44.511 160.302 L 96.967 221.573 C 97.051 221.672 97.154 221.753 97.269 221.812 L 108.341 227.501 C 108.578 227.623 108.854 227.645 109.107 227.562 Z "
              fill="rgb(255,255,255)"
              mask="url(#_mask_LjPjIdTXsY8WAGHKE55fEeWwKFqImnAR)"
              stroke-width="8"
              stroke="rgb(255,0,0)" stroke-linejoin="miter"
              stroke-linecap="butt" stroke-miterlimit="4"/>
        <path d=" M 109.107 227.562 L 167.674 208.503 C 167.907 208.428 168.104 208.269 168.228 208.057 L 216.028 126.316 C 216.167 126.078 216.202 125.792 216.123 125.528 L 209.341 102.636 C 209.307 102.522 209.253 102.415 209.181 102.319 L 196.141 84.995 C 195.591 84.266 194.429 84.675 194.459 85.588 C 194.488 86.458 193.418 86.891 192.833 86.247 L 180.284 72.427 C 179.794 71.888 178.911 72.036 178.624 72.705 L 177.528 75.262 C 177.273 75.856 176.529 76.056 176.01 75.669 L 145.034 52.53 C 144.362 52.029 143.408 52.526 143.436 53.364 L 143.446 53.672 C 143.474 54.54 142.457 55.029 141.797 54.465 L 126.639 41.511 C 125.978 40.946 124.961 41.435 124.99 42.304 L 125.006 42.788 C 125.032 43.593 124.145 44.098 123.467 43.663 L 100.907 29.205 C 100.228 28.77 99.341 29.274 99.368 30.079 L 99.454 32.712 C 99.48 33.498 98.629 34.005 97.95 33.608 L 81.185 23.811 C 80.505 23.414 79.655 23.921 79.681 24.707 L 79.745 26.655 C 79.773 27.507 78.79 28.001 78.122 27.47 L 59.032 12.276 C 58.365 11.745 57.382 12.239 57.41 13.092 L 57.419 13.377 C 57.445 14.157 56.606 14.665 55.927 14.28 L 42.057 6.432 C 41.378 6.048 40.54 6.555 40.565 7.335 L 41.085 23.162 C 41.103 23.714 40.67 24.176 40.118 24.195 L 39.848 24.203 C 39.256 24.223 38.81 24.75 38.89 25.337 L 41.733 46.324 C 41.813 46.911 41.367 47.438 40.775 47.457 L 38.128 47.544 C 37.576 47.562 37.143 48.025 37.161 48.577 L 37.859 69.837 C 37.877 70.389 37.444 70.851 36.892 70.869 L 34.372 70.952 C 33.737 70.973 33.282 71.574 33.434 72.191 L 38.332 92.051 C 38.484 92.669 38.03 93.269 37.394 93.29 L 35.024 93.368 C 34.417 93.388 33.967 93.941 34.072 94.539 L 39.541 125.948 C 39.646 126.547 39.196 127.099 38.589 127.119 L 36.427 127.19 C 35.729 127.213 35.269 127.926 35.535 128.571 L 47.36 157.231 C 47.626 157.876 47.166 158.589 46.469 158.612 L 45.238 158.652 C 44.399 158.68 43.965 159.665 44.511 160.302 L 96.967 221.573 C 97.051 221.672 97.154 221.753 97.269 221.812 L 108.341 227.501 C 108.578 227.623 108.854 227.645 109.107 227.562 Z "
              fill="rgb(255,255,255)"/>
        <path d=" M 117.095 165.639 L 101.42 131.306 M 59.694 39.92 L 80.557 85.613 M 101.42 131.306 L 75.311 130.764 M 101.42 131.306 L 80.557 85.613 M 101.42 131.306 L 109.302 107.465 M 80.557 85.613 L 63.852 80.515 M 80.557 85.613 L 85.076 69.954"
              fill="none" stroke-width="4"
              stroke="rgb(255,0,0)" stroke-linejoin="miter"
              stroke-linecap="round" stroke-miterlimit="4"/>
        <mask id="_mask_F2MvpceLIzTgfJnX0E0fJWTq6uTtULjn" x="-200%" y="-200%"
              width="400%" height="400%">
            <rect x="-200%" y="-200%" width="400%" height="400%"
                  style="fill:white;"/>
            <path d=" M 203.117 263.139 L 154.384 225.477 C 154.19 225.327 153.948 225.253 153.703 225.27 L 59.238 231.807 C 58.963 231.826 58.707 231.958 58.533 232.172 L 43.437 250.669 C 43.362 250.761 43.303 250.867 43.265 250.98 L 36.293 271.512 C 36 272.376 36.993 273.106 37.73 272.567 C 38.433 272.054 39.394 272.694 39.191 273.54 L 34.839 291.693 C 34.669 292.401 35.288 293.047 36.003 292.907 L 38.733 292.374 C 39.368 292.25 39.951 292.752 39.923 293.399 L 38.249 332.027 C 38.213 332.864 39.161 333.372 39.838 332.878 L 40.087 332.696 C 40.788 332.183 41.765 332.748 41.671 333.612 L 39.503 353.433 C 39.408 354.297 40.385 354.862 41.087 354.349 L 41.479 354.063 C 42.129 353.588 43.045 354.037 43.068 354.842 L 43.826 381.627 C 43.849 382.432 44.765 382.881 45.415 382.406 L 47.542 380.852 C 48.177 380.388 49.075 380.805 49.13 381.59 L 50.476 400.961 C 50.531 401.746 51.428 402.164 52.064 401.699 L 53.637 400.55 C 54.326 400.046 55.288 400.581 55.224 401.431 L 53.421 425.763 C 53.358 426.614 54.319 427.148 55.008 426.645 L 55.239 426.476 C 55.869 426.015 56.76 426.422 56.825 427.2 L 58.151 443.081 C 58.216 443.859 59.107 444.266 59.737 443.806 L 72.523 434.462 C 72.969 434.137 73.595 434.234 73.921 434.68 L 74.08 434.898 C 74.43 435.377 75.116 435.448 75.557 435.052 L 91.297 420.883 C 91.738 420.487 92.424 420.558 92.774 421.036 L 94.337 423.175 C 94.662 423.621 95.288 423.718 95.734 423.392 L 112.909 410.842 C 113.355 410.516 113.981 410.613 114.306 411.059 L 115.794 413.095 C 116.169 413.609 116.922 413.646 117.346 413.173 L 130.999 397.94 C 131.423 397.467 132.176 397.504 132.551 398.018 L 133.95 399.932 C 134.309 400.423 135.018 400.483 135.454 400.06 L 158.328 377.851 C 158.764 377.428 159.474 377.488 159.832 377.978 L 161.108 379.725 C 161.52 380.289 162.368 380.267 162.752 379.684 L 179.775 353.772 C 180.158 353.189 181.006 353.168 181.418 353.731 L 182.144 354.726 C 182.639 355.403 183.698 355.207 183.917 354.397 L 205.005 276.544 C 205.039 276.419 205.048 276.288 205.032 276.16 L 203.498 263.807 C 203.465 263.543 203.328 263.302 203.117 263.139 Z "
                  fill="black" stroke="none"/>
        </mask>
        <path d=" M 203.117 263.139 L 154.384 225.477 C 154.19 225.327 153.948 225.253 153.703 225.27 L 59.238 231.807 C 58.963 231.826 58.707 231.958 58.533 232.172 L 43.437 250.669 C 43.362 250.761 43.303 250.867 43.265 250.98 L 36.293 271.512 C 36 272.376 36.993 273.106 37.73 272.567 C 38.433 272.054 39.394 272.694 39.191 273.54 L 34.839 291.693 C 34.669 292.401 35.288 293.047 36.003 292.907 L 38.733 292.374 C 39.368 292.25 39.951 292.752 39.923 293.399 L 38.249 332.027 C 38.213 332.864 39.161 333.372 39.838 332.878 L 40.087 332.696 C 40.788 332.183 41.765 332.748 41.671 333.612 L 39.503 353.433 C 39.408 354.297 40.385 354.862 41.087 354.349 L 41.479 354.063 C 42.129 353.588 43.045 354.037 43.068 354.842 L 43.826 381.627 C 43.849 382.432 44.765 382.881 45.415 382.406 L 47.542 380.852 C 48.177 380.388 49.075 380.805 49.13 381.59 L 50.476 400.961 C 50.531 401.746 51.428 402.164 52.064 401.699 L 53.637 400.55 C 54.326 400.046 55.288 400.581 55.224 401.431 L 53.421 425.763 C 53.358 426.614 54.319 427.148 55.008 426.645 L 55.239 426.476 C 55.869 426.015 56.76 426.422 56.825 427.2 L 58.151 443.081 C 58.216 443.859 59.107 444.266 59.737 443.806 L 72.523 434.462 C 72.969 434.137 73.595 434.234 73.921 434.68 L 74.08 434.898 C 74.43 435.377 75.116 435.448 75.557 435.052 L 91.297 420.883 C 91.738 420.487 92.424 420.558 92.774 421.036 L 94.337 423.175 C 94.662 423.621 95.288 423.718 95.734 423.392 L 112.909 410.842 C 113.355 410.516 113.981 410.613 114.306 411.059 L 115.794 413.095 C 116.169 413.609 116.922 413.646 117.346 413.173 L 130.999 397.94 C 131.423 397.467 132.176 397.504 132.551 398.018 L 133.95 399.932 C 134.309 400.423 135.018 400.483 135.454 400.06 L 158.328 377.851 C 158.764 377.428 159.474 377.488 159.832 377.978 L 161.108 379.725 C 161.52 380.289 162.368 380.267 162.752 379.684 L 179.775 353.772 C 180.158 353.189 181.006 353.168 181.418 353.731 L 182.144 354.726 C 182.639 355.403 183.698 355.207 183.917 354.397 L 205.005 276.544 C 205.039 276.419 205.048 276.288 205.032 276.16 L 203.498 263.807 C 203.465 263.543 203.328 263.302 203.117 263.139 Z "
              fill="rgb(255,255,255)"
              mask="url(#_mask_F2MvpceLIzTgfJnX0E0fJWTq6uTtULjn)"
              stroke-width="8"
              stroke="rgb(255,0,0)" stroke-linejoin="miter"
              stroke-linecap="butt" stroke-miterlimit="4"/>
        <path d=" M 203.117 263.139 L 154.384 225.477 C 154.19 225.327 153.948 225.253 153.703 225.27 L 59.238 231.807 C 58.963 231.826 58.707 231.958 58.533 232.172 L 43.437 250.669 C 43.362 250.761 43.303 250.867 43.265 250.98 L 36.293 271.512 C 36 272.376 36.993 273.106 37.73 272.567 C 38.433 272.054 39.394 272.694 39.191 273.54 L 34.839 291.693 C 34.669 292.401 35.288 293.047 36.003 292.907 L 38.733 292.374 C 39.368 292.25 39.951 292.752 39.923 293.399 L 38.249 332.027 C 38.213 332.864 39.161 333.372 39.838 332.878 L 40.087 332.696 C 40.788 332.183 41.765 332.748 41.671 333.612 L 39.503 353.433 C 39.408 354.297 40.385 354.862 41.087 354.349 L 41.479 354.063 C 42.129 353.588 43.045 354.037 43.068 354.842 L 43.826 381.627 C 43.849 382.432 44.765 382.881 45.415 382.406 L 47.542 380.852 C 48.177 380.388 49.075 380.805 49.13 381.59 L 50.476 400.961 C 50.531 401.746 51.428 402.164 52.064 401.699 L 53.637 400.55 C 54.326 400.046 55.288 400.581 55.224 401.431 L 53.421 425.763 C 53.358 426.614 54.319 427.148 55.008 426.645 L 55.239 426.476 C 55.869 426.015 56.76 426.422 56.825 427.2 L 58.151 443.081 C 58.216 443.859 59.107 444.266 59.737 443.806 L 72.523 434.462 C 72.969 434.137 73.595 434.234 73.921 434.68 L 74.08 434.898 C 74.43 435.377 75.116 435.448 75.557 435.052 L 91.297 420.883 C 91.738 420.487 92.424 420.558 92.774 421.036 L 94.337 423.175 C 94.662 423.621 95.288 423.718 95.734 423.392 L 112.909 410.842 C 113.355 410.516 113.981 410.613 114.306 411.059 L 115.794 413.095 C 116.169 413.609 116.922 413.646 117.346 413.173 L 130.999 397.94 C 131.423 397.467 132.176 397.504 132.551 398.018 L 133.95 399.932 C 134.309 400.423 135.018 400.483 135.454 400.06 L 158.328 377.851 C 158.764 377.428 159.474 377.488 159.832 377.978 L 161.108 379.725 C 161.52 380.289 162.368 380.267 162.752 379.684 L 179.775 353.772 C 180.158 353.189 181.006 353.168 181.418 353.731 L 182.144 354.726 C 182.639 355.403 183.698 355.207 183.917 354.397 L 205.005 276.544 C 205.039 276.419 205.048 276.288 205.032 276.16 L 203.498 263.807 C 203.465 263.543 203.328 263.302 203.117 263.139 Z "
              fill="rgb(255,255,255)"/>
        <path d=" M 147.449 291.412 L 127.907 323.701 M 75.89 409.648 L 101.898 366.675 M 127.907 323.701 L 142.162 345.581 M 127.907 323.701 L 101.898 366.675 M 127.907 323.701 L 103.766 330.615 M 101.898 366.675 L 107.094 383.35 M 101.898 366.675 L 86.413 371.76"
              fill="none" stroke-width="4"
              stroke="rgb(255,0,0)" stroke-linejoin="miter"
              stroke-linecap="round" stroke-miterlimit="4"/>
        <mask id="_mask_5q55FiDVgW69XE4lf3399cjwiD2FjORB" x="-200%" y="-200%"
              width="400%" height="400%">
            <rect x="-200%" y="-200%" width="400%" height="400%"
                  style="fill:white;"/>
            <path d=" M 301.634 325.105 C 301.634 325.105 353.634 272.605 347.134 231.105 C 340.634 189.605 318.634 147.105 269.634 107.105 C 220.634 67.105 170 53.105 143.134 55.105 C 116.268 57.105 124.634 69.105 119.634 81.605 C 114.634 94.105 129.134 114.605 123.134 124.105 C 117.134 133.605 50.634 162.605 24.634 187.605 C -1.366 212.605 6.634 253.605 24.634 281.605 C 42.634 309.605 147.134 396.105 218.134 384.605 C 289.134 373.105 301.634 325.105 301.634 325.105 Z "
                  fill="black" stroke="none"/>
        </mask>
        <path d=" M 301.634 325.105 C 301.634 325.105 353.634 272.605 347.134 231.105 C 340.634 189.605 318.634 147.105 269.634 107.105 C 220.634 67.105 170 53.105 143.134 55.105 C 116.268 57.105 124.634 69.105 119.634 81.605 C 114.634 94.105 129.134 114.605 123.134 124.105 C 117.134 133.605 50.634 162.605 24.634 187.605 C -1.366 212.605 6.634 253.605 24.634 281.605 C 42.634 309.605 147.134 396.105 218.134 384.605 C 289.134 373.105 301.634 325.105 301.634 325.105 Z "
              fill="rgb(255,255,255)"
              mask="url(#_mask_5q55FiDVgW69XE4lf3399cjwiD2FjORB)"
              stroke-width="12"
              stroke="rgb(255,0,0)" stroke-linejoin="miter"
              stroke-linecap="butt" stroke-miterlimit="4"/>
        <path d=" M 301.634 325.105 C 301.634 325.105 353.634 272.605 347.134 231.105 C 340.634 189.605 318.634 147.105 269.634 107.105 C 220.634 67.105 170 53.105 143.134 55.105 C 116.268 57.105 124.634 69.105 119.634 81.605 C 114.634 94.105 129.134 114.605 123.134 124.105 C 117.134 133.605 50.634 162.605 24.634 187.605 C -1.366 212.605 6.634 253.605 24.634 281.605 C 42.634 309.605 147.134 396.105 218.134 384.605 C 289.134 373.105 301.634 325.105 301.634 325.105 Z "
              fill="rgb(255,255,255)"/>
        <circle cx="189.00004076763952"
                cy="230.1054457932363" r="20" fill="rgb(255,255,255)"/>
        <mask id="_mask_zvcV9GRHbhSf8CCzxxbLZ8BWRcTclSVg" x="-200%" y="-200%"
              width="400%" height="400%">
            <rect x="-200%" y="-200%" width="400%" height="400%"
                  style="fill:white;"/>
            <path d=" M 153.726 236.82 C 160.133 264.118 214.619 249.957 214.619 249.957 C 214.619 249.957 182.563 246.624 178.98 229.454 C 175.397 212.284 202.496 189.967 202.496 189.967 C 202.496 189.967 147.32 209.522 153.726 236.82 Z "
                  fill="black" stroke="none"/>
        </mask>
        <path d=" M 153.726 236.82 C 160.133 264.118 214.619 249.957 214.619 249.957 C 214.619 249.957 182.563 246.624 178.98 229.454 C 175.397 212.284 202.496 189.967 202.496 189.967 C 202.496 189.967 147.32 209.522 153.726 236.82 Z "
              fill="rgb(255,255,255)"
              mask="url(#_mask_zvcV9GRHbhSf8CCzxxbLZ8BWRcTclSVg)"
              stroke-width="12"
              stroke="rgb(255,0,0)" stroke-linejoin="miter"
              stroke-linecap="butt" stroke-miterlimit="4"/>
        <path d=" M 153.726 236.82 C 160.133 264.118 214.619 249.957 214.619 249.957 C 214.619 249.957 182.563 246.624 178.98 229.454 C 175.397 212.284 202.496 189.967 202.496 189.967 C 202.496 189.967 147.32 209.522 153.726 236.82 Z "
              fill="rgb(255,255,255)"/>
        <mask id="_mask_t9wHmdxgLfg890vsQDFJIqDDzAHIEpC3" x="-200%" y="-200%"
              width="400%" height="400%">
            <rect x="-200%" y="-200%" width="400%" height="400%"
                  style="fill:white;"/>
            <path d=" M 207.848 210.332 C 190.094 187.501 152.073 214.073 152.073 214.073 C 152.073 214.073 179.791 208.892 190.594 223.366 C 201.396 237.84 189.492 264.743 189.492 264.743 C 189.492 264.743 225.602 233.163 207.848 210.332 Z "
                  fill="black" stroke="none"/>
        </mask>
        <path d=" M 207.848 210.332 C 190.094 187.501 152.073 214.073 152.073 214.073 C 152.073 214.073 179.791 208.892 190.594 223.366 C 201.396 237.84 189.492 264.743 189.492 264.743 C 189.492 264.743 225.602 233.163 207.848 210.332 Z "
              fill="rgb(255,255,255)"
              mask="url(#_mask_t9wHmdxgLfg890vsQDFJIqDDzAHIEpC3)"
              stroke-width="12"
              stroke="rgb(255,0,0)" stroke-linejoin="miter"
              stroke-linecap="butt" stroke-miterlimit="4"/>
        <path d=" M 207.848 210.332 C 190.094 187.501 152.073 214.073 152.073 214.073 C 152.073 214.073 179.791 208.892 190.594 223.366 C 201.396 237.84 189.492 264.743 189.492 264.743 C 189.492 264.743 225.602 233.163 207.848 210.332 Z "
              fill="rgb(255,255,255)"/>
        <mask id="_mask_RVuKvkrDMPgyxKXjV92pRsLRBon1mO57" x="-200%" y="-200%"
              width="400%" height="400%">
            <rect x="-200%" y="-200%" width="400%" height="400%"
                  style="fill:white;"/>
            <path d=" M 178.281 180.837 C 150.014 186.208 156.019 231.34 156.019 231.34 C 156.019 231.34 164.154 204.762 181.866 201.753 C 199.579 198.745 217.844 221.157 217.844 221.157 C 217.844 221.157 206.547 175.466 178.281 180.837 Z "
                  fill="black" stroke="none"/>
        </mask>
        <path d=" M 178.281 180.837 C 150.014 186.208 156.019 231.34 156.019 231.34 C 156.019 231.34 164.154 204.762 181.866 201.753 C 199.579 198.745 217.844 221.157 217.844 221.157 C 217.844 221.157 206.547 175.466 178.281 180.837 Z "
              fill="rgb(255,255,255)"
              mask="url(#_mask_RVuKvkrDMPgyxKXjV92pRsLRBon1mO57)"
              stroke-width="8"
              stroke="rgb(255,0,0)" stroke-linejoin="miter"
              stroke-linecap="butt" stroke-miterlimit="4"/>
        <path d=" M 178.281 180.837 C 150.014 186.208 156.019 231.34 156.019 231.34 C 156.019 231.34 164.154 204.762 181.866 201.753 C 199.579 198.745 217.844 221.157 217.844 221.157 C 217.844 221.157 206.547 175.466 178.281 180.837 Z "
              fill="rgb(255,255,255)"/>
        <mask id="_mask_HUtMikfirM8xtSlYrPMkcJys7ZMgP5qW" x="-200%" y="-200%"
              width="400%" height="400%">
            <rect x="-200%" y="-200%" width="400%" height="400%"
                  style="fill:white;"/>
            <path d=" M 140.5 264.92 C 161.349 284.964 204.5 241.629 204.5 241.629 C 204.5 241.629 183.355 254.401 170.585 241.629 C 157.816 228.857 167 202.42 167 202.42 C 167 202.42 119.651 244.876 140.5 264.92 Z "
                  fill="black" stroke="none"/>
        </mask>
        <path d=" M 140.5 264.92 C 161.349 284.964 204.5 241.629 204.5 241.629 C 204.5 241.629 183.355 254.401 170.585 241.629 C 157.816 228.857 167 202.42 167 202.42 C 167 202.42 119.651 244.876 140.5 264.92 Z "
              fill="rgb(255,255,255)"
              mask="url(#_mask_HUtMikfirM8xtSlYrPMkcJys7ZMgP5qW)"
              stroke-width="12"
              stroke="rgb(255,0,0)" stroke-linejoin="miter"
              stroke-linecap="butt" stroke-miterlimit="4"/>
        <path d=" M 140.5 264.92 C 161.349 284.964 204.5 241.629 204.5 241.629 C 204.5 241.629 183.355 254.401 170.585 241.629 C 157.816 228.857 167 202.42 167 202.42 C 167 202.42 119.651 244.876 140.5 264.92 Z "
              fill="rgb(255,255,255)"/>
        <mask id="_mask_zjxTA3ccgtNtdlBe2YksWZGmmA8ouIzB" x="-200%" y="-200%"
              width="400%" height="400%">
            <rect x="-200%" y="-200%" width="400%" height="400%"
                  style="fill:white;"/>
            <path d=" M 125 243.922 C 125 243.922 162.825 286.754 194.441 283.82 C 209.724 282.402 230.017 275.563 237.912 259.177 C 246.349 241.666 247.509 218.105 247.509 218.105 C 247.509 218.105 283.076 282.646 223.233 310.81 C 198.443 322.477 169.539 319.408 151.5 304.42 C 124.401 282.124 125 243.922 125 243.922 Z "
                  fill="black" stroke="none"/>
        </mask>
        <path d=" M 125 243.922 C 125 243.922 162.825 286.754 194.441 283.82 C 209.724 282.402 230.017 275.563 237.912 259.177 C 246.349 241.666 247.509 218.105 247.509 218.105 C 247.509 218.105 283.076 282.646 223.233 310.81 C 198.443 322.477 169.539 319.408 151.5 304.42 C 124.401 282.124 125 243.922 125 243.922 Z "
              fill="rgb(255,255,255)"
              mask="url(#_mask_zjxTA3ccgtNtdlBe2YksWZGmmA8ouIzB)"
              stroke-width="12"
              stroke="rgb(255,0,0)" stroke-linejoin="miter"
              stroke-linecap="butt" stroke-miterlimit="4"/>
        <path d=" M 125 243.922 C 125 243.922 162.825 286.754 194.441 283.82 C 209.724 282.402 230.017 275.563 237.912 259.177 C 246.349 241.666 247.509 218.105 247.509 218.105 C 247.509 218.105 283.076 282.646 223.233 310.81 C 198.443 322.477 169.539 319.408 151.5 304.42 C 124.401 282.124 125 243.922 125 243.922 Z "
              fill="rgb(255,255,255)"/>
        <mask id="_mask_K2mViTljifbQdkkfZHhq3v5LpjNrPxkQ" x="-200%" y="-200%"
              width="400%" height="400%">
            <rect x="-200%" y="-200%" width="400%" height="400%"
                  style="fill:white;"/>
            <path d=" M 140.5 256.42 C 140.5 256.42 187.477 265.62 203.041 241.173 C 210.565 229.354 215.032 208.846 201.473 187.527 C 186.983 164.745 161.416 141.053 161.416 141.053 C 161.416 141.053 269.5 164.92 258.5 241.173 C 256.734 269.446 232.5 291.311 201.473 288.92 C 160.481 285.762 140.5 256.42 140.5 256.42 Z "
                  fill="black" stroke="none"/>
        </mask>
        <path d=" M 140.5 256.42 C 140.5 256.42 187.477 265.62 203.041 241.173 C 210.565 229.354 215.032 208.846 201.473 187.527 C 186.983 164.745 161.416 141.053 161.416 141.053 C 161.416 141.053 269.5 164.92 258.5 241.173 C 256.734 269.446 232.5 291.311 201.473 288.92 C 160.481 285.762 140.5 256.42 140.5 256.42 Z "
              fill="rgb(255,255,255)"
              mask="url(#_mask_K2mViTljifbQdkkfZHhq3v5LpjNrPxkQ)"
              stroke-width="12"
              stroke="rgb(255,0,0)" stroke-linejoin="miter"
              stroke-linecap="butt" stroke-miterlimit="4"/>
        <path d=" M 140.5 256.42 C 140.5 256.42 187.477 265.62 203.041 241.173 C 210.565 229.354 215.032 208.846 201.473 187.527 C 186.983 164.745 161.416 141.053 161.416 141.053 C 161.416 141.053 269.5 164.92 258.5 241.173 C 256.734 269.446 232.5 291.311 201.473 288.92 C 160.481 285.762 140.5 256.42 140.5 256.42 Z "
              fill="rgb(255,255,255)"/>
        <mask id="_mask_Dxwehr5ZAaqUYBWyyTYseyxQpgw4gcPs" x="-200%" y="-200%"
              width="400%" height="400%">
            <rect x="-200%" y="-200%" width="400%" height="400%"
                  style="fill:white;"/>
            <path d=" M 122 180.92 C 158 99.92 241.5 186.92 241.5 186.92 C 241.5 186.92 183.5 177.42 154.5 222.42 C 125.5 267.42 137.5 312.42 137.5 312.42 C 137.5 312.42 86 261.92 122 180.92 Z "
                  fill="black" stroke="none"/>
        </mask>
        <path d=" M 122 180.92 C 158 99.92 241.5 186.92 241.5 186.92 C 241.5 186.92 183.5 177.42 154.5 222.42 C 125.5 267.42 137.5 312.42 137.5 312.42 C 137.5 312.42 86 261.92 122 180.92 Z "
              fill="rgb(255,255,255)"
              mask="url(#_mask_Dxwehr5ZAaqUYBWyyTYseyxQpgw4gcPs)"
              stroke-width="12"
              stroke="rgb(255,0,0)" stroke-linejoin="miter"
              stroke-linecap="butt" stroke-miterlimit="4"/>
        <path d=" M 122 180.92 C 158 99.92 241.5 186.92 241.5 186.92 C 241.5 186.92 183.5 177.42 154.5 222.42 C 125.5 267.42 137.5 312.42 137.5 312.42 C 137.5 312.42 86 261.92 122 180.92 Z "
              fill="rgb(255,255,255)"/>
        <mask id="_mask_knfruXlD7qZFpMWSz0ePfIbeTieEhYD3" x="-200%" y="-200%"
              width="400%" height="400%">
            <rect x="-200%" y="-200%" width="400%" height="400%"
                  style="fill:white;"/>
            <path d=" M 358 259.105 C 398 115.105 244 114.105 244 114.105 C 244 114.105 331 148.105 286 259.105 C 274.88 286.535 308.5 291.495 273 320.105 C 223.26 360.191 159 336.105 159 336.105 C 159 336.105 201.632 372.425 258 362.105 C 314.368 351.785 302.604 333.738 323 308.105 C 335.365 292.565 351.795 281.442 358 259.105 Z "
                  fill="black" stroke="none"/>
        </mask>
        <path d=" M 358 259.105 C 398 115.105 244 114.105 244 114.105 C 244 114.105 331 148.105 286 259.105 C 274.88 286.535 308.5 291.495 273 320.105 C 223.26 360.191 159 336.105 159 336.105 C 159 336.105 201.632 372.425 258 362.105 C 314.368 351.785 302.604 333.738 323 308.105 C 335.365 292.565 351.795 281.442 358 259.105 Z "
              fill="rgb(255,255,255)"
              mask="url(#_mask_knfruXlD7qZFpMWSz0ePfIbeTieEhYD3)"
              stroke-width="12"
              stroke="rgb(255,0,0)" stroke-linejoin="miter"
              stroke-linecap="butt" stroke-miterlimit="4"/>
        <path d=" M 358 259.105 C 398 115.105 244 114.105 244 114.105 C 244 114.105 331 148.105 286 259.105 C 274.88 286.535 308.5 291.495 273 320.105 C 223.26 360.191 159 336.105 159 336.105 C 159 336.105 201.632 372.425 258 362.105 C 314.368 351.785 302.604 333.738 323 308.105 C 335.365 292.565 351.795 281.442 358 259.105 Z "
              fill="rgb(255,255,255)"/>
        <mask id="_mask_mqdiTctPGtYQf91gUD4NhawifHdOJXzI" x="-200%" y="-200%"
              width="400%" height="400%">
            <rect x="-200%" y="-200%" width="400%" height="400%"
                  style="fill:white;"/>
            <path d=" M 166.952 339.105 C 166.952 339.105 -11.82 299.397 31.88 169.443 C 39.176 147.748 50.191 132.025 63.5 120.895 C 72.16 113.654 85.791 119.337 96 115.605 C 105.597 112.097 111.706 98.992 122 97.934 C 184.735 91.488 254.346 124.689 257 126.125 C 257 126.125 132.428 124.867 113.935 212.132 C 95.443 299.397 166.952 339.105 166.952 339.105 Z "
                  fill="black" stroke="none"/>
        </mask>
        <path d=" M 166.952 339.105 C 166.952 339.105 -11.82 299.397 31.88 169.443 C 39.176 147.748 50.191 132.025 63.5 120.895 C 72.16 113.654 85.791 119.337 96 115.605 C 105.597 112.097 111.706 98.992 122 97.934 C 184.735 91.488 254.346 124.689 257 126.125 C 257 126.125 132.428 124.867 113.935 212.132 C 95.443 299.397 166.952 339.105 166.952 339.105 Z "
              fill="rgb(255,255,255)"
              mask="url(#_mask_mqdiTctPGtYQf91gUD4NhawifHdOJXzI)"
              stroke-width="12"
              stroke="rgb(255,0,0)" stroke-linejoin="miter"
              stroke-linecap="butt" stroke-miterlimit="4"/>
        <path d=" M 166.952 339.105 C 166.952 339.105 -11.82 299.397 31.88 169.443 C 39.176 147.748 50.191 132.025 63.5 120.895 C 72.16 113.654 85.791 119.337 96 115.605 C 105.597 112.097 111.706 98.992 122 97.934 C 184.735 91.488 254.346 124.689 257 126.125 C 257 126.125 132.428 124.867 113.935 212.132 C 95.443 299.397 166.952 339.105 166.952 339.105 Z "
              fill="rgb(255,255,255)"/>
        <path d=" M 293.25 155.03 C 357.755 279.739 209.049 317.924 209.049 317.924 C 209.049 317.924 298.668 242.377 241.549 185.829 C 184.43 129.281 119.925 203.5 119.925 203.5 C 119.925 203.5 126.35 157.993 163.749 130.291 C 196.951 105.696 262.915 96.382 293.25 155.03 Z "
              fill="rgb(255,255,255)"
              stroke-width="6" stroke="rgb(255,0,0)" stroke-linejoin="miter"
              stroke-linecap="butt" stroke-miterlimit="4"/>
    </g>
</svg>