<svg width="377" height="350" viewBox="0 0 377 350" fill="none" xmlns="http://www.w3.org/2000/svg">
<g clip-path="url(#clip0)">
<rect width="377" height="350" fill="white"/>
<path d="M311.185 285.926C311.185 285.926 366.293 230.368 359.404 186.45C352.516 142.532 329.201 97.5559 277.272 55.2255C225.343 12.895 171.683 -1.92061 143.211 0.195913C114.74 2.31243 123.605 15.0116 118.307 28.2398C113.008 41.4681 128.374 63.1624 122.016 73.2159C115.657 83.2694 45.1824 113.959 17.6284 140.415C-9.92563 166.872 -1.44741 210.261 17.6284 239.892C36.7042 269.523 147.45 361.063 222.694 348.893C297.938 336.723 311.185 285.926 311.185 285.926Z" fill="#FF0000" stroke="white" stroke-width="10"/>
<circle cx="201" cy="186.185" r="20" fill="#FF0000" stroke="white" stroke-width="10"/>
<path d="M152.5 221C173.349 241.044 216.5 197.709 216.5 197.709C216.5 197.709 195.354 210.481 182.585 197.709C169.815 184.937 179 158.5 179 158.5C179 158.5 131.65 200.956 152.5 221Z" fill="#FF0000" stroke="white" stroke-width="10"/>
<path d="M137 200.002C137 200.002 162 241.5 217.5 236C273 230.5 264.5 200.002 264.5 200.002C264.5 200.002 295.076 238.727 235.233 266.89C210.443 278.557 181.539 275.488 163.5 260.5C136.401 238.204 137 200.002 137 200.002Z" fill="#FF0000" stroke="white" stroke-width="10"/>
<path d="M152.5 212.5C152.5 212.5 199.477 221.7 215.041 197.253C222.565 185.434 227.032 164.926 213.473 143.607C198.984 120.825 173.417 97.1328 173.417 97.1328C173.417 97.1328 281.5 121 270.5 197.253C268.735 225.526 244.5 247.391 213.473 245C172.481 241.842 152.5 212.5 152.5 212.5Z" fill="#FF0000" stroke="white" stroke-width="10"/>
<path d="M135.5 144C171.5 62.9998 259.278 139.508 259.278 139.508C259.278 139.508 218.995 116 175 160C131.005 204 160.5 259 160.5 259C160.5 259 99.5002 225 135.5 144Z" fill="#FF0000" stroke="white" stroke-width="10"/>
<path d="M370 215.185C410 71.1851 256 70.1851 256 70.1851C256 70.1851 343 104.185 298 215.185C286.88 242.615 320.5 247.575 285 276.185C235.26 316.271 171 292.185 171 292.185C171 292.185 213.632 328.505 270 318.185C326.368 307.865 314.604 289.818 335 264.185C347.365 248.645 363.795 237.522 370 215.185Z" fill="#FF0000" stroke="white" stroke-width="10"/>
<path d="M178.952 295.185C178.952 295.185 0.18 255.477 43.8799 125.523C51.1755 103.828 62.1907 88.1047 75.5 76.9753C84.1597 69.7339 97.7906 75.4168 108 71.6851C117.597 68.177 123.706 55.0722 134 54.0145C196.735 47.5682 266.346 80.769 269 82.2049C269 82.2049 144.428 80.9472 125.935 168.212C107.443 255.477 178.952 295.185 178.952 295.185Z" fill="#FF0000" stroke="white" stroke-width="10"/>
<path d="M305 110.685C370.5 234.185 219.5 272 219.5 272C219.5 272 310.501 197.185 252.501 141.185C194.501 85.185 129.001 158.685 129.001 158.685C129.001 158.685 135.525 113.619 173.501 86.1851C207.215 61.8295 274.197 52.6054 305 110.685Z" fill="#FF0000" stroke="white" stroke-width="10"/>
</g>
<defs>
<clipPath id="clip0">
<rect width="377" height="350" fill="white"/>
</clipPath>
</defs>
</svg>
